<svg width="24" height="24" viewBox="0 0 24 24" fill="none" xmlns="http://www.w3.org/2000/svg">
<path d="M16.161 2.01001C16.1165 1.96251 14.5146 2.02876 13.1206 3.47501C11.7266 4.92001 11.9411 6.57751 11.9725 6.62001C12.0038 6.66251 13.9602 6.72876 15.209 5.04751C16.4579 3.36626 16.2055 2.05876 16.161 2.01001ZM20.4947 16.6763C20.4319 16.5563 17.4543 15.1338 17.7316 12.3988C18.0088 9.66251 19.9219 8.91251 19.952 8.83126C19.9821 8.75001 19.1713 7.84376 18.3122 7.38501C17.6814 7.06157 16.9832 6.87627 16.2682 6.84251C16.127 6.83876 15.6366 6.72376 14.6284 6.98751C13.9641 7.16126 12.4668 7.72376 12.0548 7.74626C11.6416 7.76876 10.4124 7.09376 9.0903 6.91501C8.24422 6.75876 7.34714 7.07876 6.70506 7.32501C6.06429 7.57001 4.84552 8.26751 3.9929 10.1213C3.14029 11.9738 3.58621 14.9088 3.90529 15.8213C4.22437 16.7325 4.7226 18.2263 5.56998 19.3163C6.32322 20.5463 7.3223 21.4 7.73945 21.69C8.15661 21.98 9.33353 22.1725 10.1495 21.7738C10.806 21.3888 11.9908 21.1675 12.4589 21.1838C12.9258 21.2 13.8464 21.3763 14.7892 21.8575C15.5359 22.1038 16.2421 22.0013 16.9496 21.7263C17.657 21.45 18.6809 20.4025 19.8762 18.2788C20.3299 17.2913 20.5366 16.7575 20.4947 16.6763Z" fill="white"/>
<path d="M16.161 2.01001C16.1165 1.96251 14.5146 2.02876 13.1206 3.47501C11.7266 4.92001 11.9411 6.57751 11.9725 6.62001C12.0038 6.66251 13.9602 6.72876 15.209 5.04751C16.4579 3.36626 16.2055 2.05876 16.161 2.01001ZM20.4947 16.6763C20.4319 16.5563 17.4543 15.1338 17.7316 12.3988C18.0088 9.66251 19.9219 8.91251 19.952 8.83126C19.9821 8.75001 19.1713 7.84376 18.3122 7.38501C17.6814 7.06157 16.9832 6.87627 16.2682 6.84251C16.127 6.83876 15.6366 6.72376 14.6284 6.98751C13.9641 7.16126 12.4668 7.72376 12.0548 7.74626C11.6416 7.76876 10.4124 7.09376 9.0903 6.91501C8.24422 6.75876 7.34714 7.07876 6.70506 7.32501C6.06429 7.57001 4.84552 8.26751 3.9929 10.1213C3.14029 11.9738 3.58621 14.9088 3.90529 15.8213C4.22437 16.7325 4.7226 18.2263 5.56998 19.3163C6.32322 20.5463 7.3223 21.4 7.73945 21.69C8.15661 21.98 9.33353 22.1725 10.1495 21.7738C10.806 21.3888 11.9908 21.1675 12.4589 21.1838C12.9258 21.2 13.8464 21.3763 14.7892 21.8575C15.5359 22.1038 16.2421 22.0013 16.9496 21.7263C17.657 21.45 18.6809 20.4025 19.8762 18.2788C20.3299 17.2913 20.5366 16.7575 20.4947 16.6763Z" fill="white"/>
</svg>
