<svg width="24" height="24" viewBox="0 0 24 24" fill="none" xmlns="http://www.w3.org/2000/svg">
<path d="M17.5679 16.3747C17.7264 16.5332 17.8154 16.7482 17.8154 16.9723C17.8154 17.1965 17.7264 17.4115 17.5679 17.57C17.4094 17.7285 17.1944 17.8175 16.9702 17.8175C16.746 17.8175 16.5311 17.7285 16.3726 17.57L11.9084 13.1044L7.44287 17.5686C7.28436 17.7271 7.06938 17.8161 6.84521 17.8161C6.62105 17.8161 6.40607 17.7271 6.24756 17.5686C6.08905 17.4101 6 17.1951 6 16.9709C6 16.7468 6.08905 16.5318 6.24756 16.3733L10.7131 11.9091L6.24896 7.44357C6.09046 7.28506 6.00141 7.07008 6.00141 6.84592C6.00141 6.62175 6.09046 6.40677 6.24896 6.24826C6.40747 6.08975 6.62246 6.0007 6.84662 6.0007C7.07078 6.0007 7.28577 6.08975 7.44428 6.24826L11.9084 10.7138L16.374 6.24756C16.5325 6.08905 16.7475 6 16.9716 6C17.1958 6 17.4108 6.08905 17.5693 6.24756C17.7278 6.40607 17.8168 6.62105 17.8168 6.84521C17.8168 7.06938 17.7278 7.28436 17.5693 7.44287L13.1037 11.9091L17.5679 16.3747Z" fill="#7C7C80"/>
</svg>
